<?xml version="1.0" encoding="UTF-8"?><svg id="Layer_2" xmlns="http://www.w3.org/2000/svg" viewBox="0 0 127.6 45.62"><defs><style>.cls-1{fill:#96c351;}.cls-2{fill:#75b847;}.cls-3{fill:#828ec6;}.cls-4{fill:#b4b8bb;}.cls-5{fill:#746ebc;}.cls-6{fill:#f49b35;}</style></defs><g id="Content"><polygon class="cls-4" points="15.36 0 15.36 27.91 10.24 30.48 10.24 19.56 5.12 16.89 5.12 6.05 15.36 0"/><polygon class="cls-6" points="32.77 8.59 32.77 36.73 27.42 34.16 27.42 17.59 22.3 20.23 22.3 2.65 32.77 8.59"/><polygon class="cls-2" points="10.24 13.77 10.24 30.48 5.12 33.06 5.12 11.1 10.24 13.77"/><polygon class="cls-1" points="10.24 30.48 10.24 42.02 0 36.75 0 8.43 5.12 11.1 5.12 33.06 10.24 30.48"/><polygon class="cls-5" points="27.42 11.82 27.42 34.16 22.3 31.59 22.3 14.46 27.42 11.82"/><polygon class="cls-3" points="27.42 34.16 27.42 40.06 16.69 45.62 16.69 17.32 22.3 14.46 22.3 31.59 27.42 34.16"/><path d="m54.13,9.13h2.67v2.49h-2.67v-2.49Zm.08,4.06h2.5v9.94h-2.5v-9.94Z"/><path d="m59.6,19.73v-4.51h-1.69v-2.03h1.69v-3.22h2.5v3.22h2.03l.89,2.03h-2.92v4.34c0,.57.1,1,.29,1.3.19.3.5.46.92.46.4,0,.7-.08.94-.17.5-.2.72-.4.91-.58l.82,1.73c-.49.4-.98.68-1.46.87-.48.18-1.02.28-1.61.28-1.22,0-2.07-.34-2.56-1.02-.49-.68-.74-1.57-.74-2.69"/><path d="m65.67,26.85l1.12-1.76c.14.11.3.22.47.33.17.11.38.16.64.16.34,0,.62-.14.85-.42.23-.28.45-.72.68-1.31l.32-.81-4.47-9.85h2.88l2.84,6.8,2.5-6.8h2.73l-4.15,9.94c-.2.48-.4.98-.6,1.51-.2.53-.44,1.02-.72,1.46-.28.44-.62.81-1.05,1.09-.42.28-.97.42-1.63.42-.57,0-1.04-.07-1.41-.21-.37-.14-.7-.33-.99-.55"/><path d="m76.01,21.91l1.5-1.63c.31.31.7.57,1.18.77.47.2,1.01.31,1.62.31.54,0,.97-.07,1.29-.22.33-.15.49-.38.49-.69,0-.2-.06-.37-.18-.52-.12-.15-.36-.3-.71-.45-.35-.15-.9-.31-1.63-.48-.44-.11-.9-.28-1.4-.51-.49-.23-.91-.55-1.26-.96-.35-.42-.52-.94-.52-1.58s.2-1.23.6-1.69c.4-.47.92-.82,1.55-1.06.63-.24,1.27-.36,1.94-.36.88,0,1.62.09,2.25.28.62.18,1.17.46,1.65.83l-1.29,1.76c-.27-.2-.63-.38-1.07-.54-.44-.16-.96-.24-1.54-.24s-.99.09-1.23.26c-.24.18-.36.39-.36.65,0,.31.19.55.58.73.39.18.99.36,1.81.56,1,.23,1.8.58,2.4,1.05.6.47.9,1.19.9,2.15,0,.64-.19,1.19-.58,1.66s-.9.84-1.55,1.09c-.64.25-1.35.38-2.13.38-.92,0-1.76-.13-2.51-.39-.76-.26-1.36-.65-1.81-1.15"/><path d="m93.32,20.22l1.48,1.61c-.47.49-1.02.89-1.66,1.19-.64.3-1.38.44-2.21.44-1.13,0-2.13-.24-2.93-.69-.8-.44-1.41-1.07-1.82-1.86-.42-.8-.63-1.72-.63-2.77,0-.96.23-1.84.68-2.65.45-.81,1.08-1.45,1.88-1.93.8-.48,1.79-.83,2.85-.83.81,0,1.58.09,2.25.38.66.29,1.23.68,1.69,1.18l-1.59,1.61c-.27-.32-.6-.58-.99-.76-.39-.18-.86-.23-1.36-.23-.64,0-1.24.27-1.65.57-.42.3-.73.68-.93,1.15-.2.47-.31.98-.31,1.51,0,.49.1.98.31,1.46.2.48.52.88.93,1.19.42.31.98.49,1.62.49.49,0,.95-.1,1.37-.29.42-.19.76-.45,1.03-.77"/><path d="m102.06,23.12l-.06-.93c-.27.32-.68.61-1.24.87-.56.25-1.17.38-1.83.38-.54,0-1.07-.11-1.6-.34-.53-.23-.97-.58-1.31-1.06-.35-.48-.52-1.09-.52-1.82,0-1.13.4-2.01,1.21-2.63.81-.62,1.86-.93,3.16-.93.24,0,.53,0,.86.02.33.01.76.04,1.28.06v-.23c0-.49-.2-.88-.59-1.17-.4-.28-.9-.4-1.53-.4-.71,0-1.25.2-1.68.38-.42.18-.75.36-1.07.57l-1.26-1.62c.27-.2.65-.45,1.02-.64.37-.19.8-.39,1.34-.52.54-.13,1.19-.27,1.98-.27,1.27,0,2.29.34,3.05,1.01.76.67,1.14,1.54,1.14,2.6v6.67h-2.33Zm-.06-3.52v-.97c-.33-.03-.68-.05-1.06-.06-.38-.01-.67-.02-.87-.02-.8,0-1.37.16-1.69.48-.33.32-.49.68-.49,1.09s.15.76.46,1c.3.24.75.36,1.35.36.4,0,.77-.09,1.11-.25.35-.17.63-.4.86-.68.23-.28.34-.59.34-.93"/><path d="m106.29,27.36v-14.17h2.42l.06,1.12c.25-.28.64-.57,1.15-.87.52-.3,1.18-.44,2-.44,1.02,0,1.85.25,2.51.75.66.5,1.15,1.15,1.47,1.94.32.79.49,1.63.49,2.52,0,.78-.11,1.44-.34,1.99-.23.55-.51,1.03-.85,1.44-.56.66-1.18,1.13-1.85,1.41-.67.28-1.36.41-2.07.41-.65,0-1.14-.05-1.47-.16-.33-.11-.68-.23-1.05-.37v4.43h-2.48Zm2.48-9.62v2.95c.49.41,1.24.61,2.25.61.61,0,1.12-.15,1.55-.44.42-.3.75-.68.97-1.15.23-.47.34-.97.34-1.49,0-.56-.08-1.08-.24-1.54-.16-.46-.43-.83-.82-1.1-.38-.28-.89-.41-1.53-.41-.51,0-.95.13-1.32.4-.37.27-.67.6-.88,1.01-.21.4-.32.79-.32,1.18"/><path d="m126.11,20.16l1.36,1.53s-.16.16-.35.35c-.19.19-.47.4-.83.61-.36.22-.82.41-1.38.57-.56.16-1.23.24-2,.24-1.06,0-1.98-.23-2.76-.69-.78-.46-1.4-1.1-1.83-1.92-.44-.82-.66-1.76-.66-2.82,0-.97.22-1.85.65-2.64.43-.78,1.02-1.41,1.78-1.86.76-.46,1.63-.69,2.62-.69.92,0,1.69.16,2.31.49.62.33,1.12.76,1.5,1.3.38.54.66,1.15.83,1.83.17.68.25,1.37.25,2.08v.36h-7.42c0,.48.14.9.41,1.26.28.36.63.64,1.05.85.42.2.85.31,1.29.31.65,0,1.19-.07,1.61-.22.42-.15.76-.31,1.02-.5.25-.18.44-.33.55-.45m-5.95-3.05h4.87c0-.34-.09-.67-.26-1.01-.18-.33-.43-.61-.77-.83-.34-.22-.77-.33-1.29-.33-.55,0-1.01.11-1.39.33-.37.22-.66.49-.86.83-.2.33-.3.67-.3,1.01"/><path d="m51.2,18.93l1.86,1.61c-.28.42-.71.86-1.27,1.31-.57.45-1.24.83-2.01,1.14-.78.31-1.62.47-2.52.47-1.4,0-2.64-.32-3.72-.95-1.08-.64-1.93-1.51-2.54-2.62-.61-1.11-.92-2.36-.92-3.76,0-1.03.18-2,.53-2.9.35-.9.85-1.7,1.49-2.38.64-.69,1.41-1.22,2.3-1.61.89-.39,1.87-.58,2.95-.58,1.4,0,2.56.28,3.49.83.93.55,1.67,1.22,2.24,2.01l-1.89,1.67c-.45-.65-.98-1.17-1.58-1.57-.6-.4-1.35-.59-2.26-.59s-1.71.23-2.38.7c-.67.47-1.19,1.08-1.55,1.85-.36.77-.54,1.61-.54,2.51s.18,1.72.54,2.46c.36.73.87,1.32,1.51,1.76.65.44,1.41.66,2.29.66.82,0,1.48-.12,1.98-.36.5-.24.9-.52,1.21-.84.3-.32.57-.59.79-.82"/><path d="m49.67,40.15l-1.38-1.67c-.38.2-.8.35-1.24.47-.44.11-.91.17-1.39.17-.79,0-1.52-.15-2.2-.44-.68-.3-1.27-.71-1.78-1.23-.51-.52-.91-1.13-1.19-1.83-.28-.69-.43-1.44-.43-2.24s.14-1.54.43-2.24c.28-.69.68-1.31,1.19-1.84.51-.53,1.1-.94,1.78-1.24.68-.3,1.41-.44,2.2-.44s1.52.15,2.2.44c.68.3,1.27.71,1.78,1.24.51.53.9,1.14,1.19,1.84.28.69.43,1.44.43,2.24,0,.88-.17,1.69-.52,2.44-.34.75-.82,1.39-1.42,1.92l1.31,1.59-.97.82Zm-2.33-2.85l-1.36-1.69.98-.82,1.39,1.74c.39-.38.7-.85.92-1.4.22-.55.33-1.15.33-1.78,0-.79-.16-1.51-.48-2.16-.32-.65-.78-1.17-1.37-1.56-.59-.39-1.29-.58-2.08-.58s-1.49.19-2.08.58c-.59.39-1.05.91-1.37,1.56-.32.65-.48,1.37-.48,2.16s.16,1.49.48,2.15c.32.66.78,1.18,1.37,1.57.59.39,1.28.59,2.08.59.6,0,1.16-.12,1.67-.36Z"/><path d="m57.89,38.83l-.03-.92c-.27.37-.65.65-1.12.84-.48.19-.95.29-1.44.29-.42,0-.83-.08-1.24-.23-.41-.15-.75-.4-1.02-.75-.27-.35-.4-.81-.4-1.39,0-.82.29-1.48.87-1.97.58-.49,1.41-.74,2.48-.74.24,0,.49,0,.75.02.26.02.49.03.7.05.21.02.34.03.41.04v-.28c0-.57-.17-.98-.52-1.22-.34-.25-.81-.37-1.4-.37s-1.03.08-1.37.24c-.34.16-.63.32-.86.48l-.69-1c.27-.22.65-.43,1.13-.64.48-.21,1.13-.31,1.95-.31.97,0,1.74.24,2.31.71.57.48.85,1.15.85,2.03v4.72c0,.11,0,.24.02.39h-1.38Zm-.05-2.74v-.87c-.05-.02-.18-.04-.38-.06s-.42-.03-.66-.05-.48-.02-.71-.02c-.55,0-.97.08-1.25.24-.29.16-.49.36-.59.59-.1.24-.16.47-.16.7,0,.4.14.72.43.94.28.22.68.33,1.18.33.38,0,.74-.08,1.06-.25.32-.17.58-.39.79-.66.2-.27.3-.56.3-.87Z"/><path d="m61.93,36.34v-3.9h-1.38v-1.23h1.38v-2.49h1.48v2.49h2.23v1.23h-2.23v3.76c0,.61.1,1.03.29,1.26.19.23.46.34.81.34.28,0,.52-.04.71-.13.19-.09.37-.22.55-.39l.67.9c-.32.31-.64.53-.98.66-.33.14-.73.21-1.19.21-.8,0-1.39-.22-1.77-.66-.38-.44-.57-1.12-.57-2.04Z"/><path d="m72.38,38.83l-.03-.92c-.27.37-.65.65-1.12.84-.48.19-.95.29-1.44.29-.42,0-.83-.08-1.24-.23-.41-.15-.75-.4-1.02-.75-.27-.35-.4-.81-.4-1.39,0-.82.29-1.48.87-1.97.58-.49,1.41-.74,2.48-.74.24,0,.49,0,.75.02.26.02.49.03.7.05.21.02.34.03.41.04v-.28c0-.57-.17-.98-.52-1.22-.34-.25-.81-.37-1.4-.37s-1.03.08-1.37.24c-.34.16-.63.32-.86.48l-.69-1c.27-.22.65-.43,1.13-.64.48-.21,1.13-.31,1.95-.31.97,0,1.74.24,2.31.71.57.48.85,1.15.85,2.03v4.72c0,.11,0,.24.02.39h-1.38Zm-.05-2.74v-.87c-.05-.02-.18-.04-.38-.06s-.42-.03-.66-.05-.48-.02-.71-.02c-.55,0-.97.08-1.25.24-.29.16-.49.36-.59.59-.1.24-.16.47-.16.7,0,.4.14.72.43.94.28.22.68.33,1.18.33.38,0,.74-.08,1.06-.25.32-.17.58-.39.79-.66.2-.27.3-.56.3-.87Z"/><path d="m77.23,38.83h-1.48v-7.15c0-.1,0-.26-.02-.48h1.41l.05,1.23c.12-.17.29-.37.5-.57.21-.21.48-.39.81-.54.33-.15.72-.23,1.18-.23.16,0,.31.01.45.03.14.02.27.05.39.1l-.33,1.38c-.2-.08-.45-.11-.75-.11-.42,0-.79.11-1.12.32-.33.21-.6.49-.8.84-.2.35-.3.74-.3,1.16v4.02Z"/></g></svg>